Coordinates
version=1
nRows=5
nColumns=21
inDegrees=yes

Units are S.I. units (second, meters, Newtons, ...)
If the header above contains a line with 'inDegrees', this indicates whether rotational values are in degrees (yes) or radians (no).

endheader
time	sternoclavicular_r2	sternoclavicular_r3	unrotscap_r3	unrotscap_r2	acromioclavicular_r2	acromioclavicular_r3	acromioclavicular_r1	unrothum_r1	unrothum_r3	unrothum_r2	elv_angle	shoulder_elev	shoulder1_r2	shoulder_rot	elbow_flexion	pro_sup	deviation	flexion	wrist_hand_r1	wrist_hand_r3
      0.00000000	    -10.55849817	      4.47208149	     -4.47208149	     10.55849817	     -2.13788110	     17.27760306	      7.76616367	     -7.76616367	    -17.27760306	      2.13788110	    107.35287251	     43.63005994	   -107.35287251	     19.98405128	      1.54743728	      0.00000000	      0.00000000	      0.00000000	      0.00000000	      0.00000000
      0.25000000	    -10.55824025	      4.47197225	     -4.47197225	     10.55824025	     -2.13782888	     17.27718101	      7.76597396	     -7.76597396	    -17.27718101	      2.13782888	    107.35336716	     43.62899415	   -107.35336716	     19.98407763	      1.54858299	      0.00000000	      0.00000000	      0.00000000	      0.00000000	      0.00000000
      0.50000000	    -10.48409588	      4.44056819	     -4.44056819	     10.48409588	     -2.12281615	     17.15585343	      7.71143804	     -7.71143804	    -17.15585343	      2.12281615	    105.87045570	     43.32261313	   -105.87045570	     19.98610677	      1.58863755	      0.00000000	      0.00000000	      0.00000000	      0.00000000	      0.00000000
      0.75000000	    -10.28116096	      4.35461454	     -4.35461454	     10.28116096	     -2.08172596	     16.82377694	      7.56217195	     -7.56217195	    -16.82377694	      2.08172596	    101.00187525	     42.48404097	   -101.00187525	     19.93698014	      1.68409560	      0.00000000	      0.00000000	      0.00000000	      0.00000000	      0.00000000
      1.00000000	    -10.10435455	      4.27972769	     -4.27972769	     10.10435455	     -2.04592626	     16.53445634	      7.43212433	     -7.43212433	    -16.53445634	      2.04592626	     94.70274460	     41.75343760	    -94.70274460	     19.80262685	      1.75369824	      0.00000000	      0.00000000	      0.00000000	      0.00000000	      0.00000000
